<svg width="86" height="25" viewBox="0 0 86 25" fill="none" xmlns="http://www.w3.org/2000/svg">
<path d="M4.424 19.098C3.70533 19.098 3.06133 18.9813 2.492 18.748C1.92267 18.5147 1.46533 18.1693 1.12 17.712C0.784 17.2547 0.606667 16.704 0.588 16.06H3.136C3.17333 16.424 3.29933 16.704 3.514 16.9C3.72867 17.0867 4.00867 17.18 4.354 17.18C4.70867 17.18 4.98867 17.1007 5.194 16.942C5.39933 16.774 5.502 16.5453 5.502 16.256C5.502 16.0133 5.418 15.8127 5.25 15.654C5.09133 15.4953 4.89067 15.3647 4.648 15.262C4.41467 15.1593 4.07867 15.0427 3.64 14.912C3.00533 14.716 2.48733 14.52 2.086 14.324C1.68467 14.128 1.33933 13.8387 1.05 13.456C0.760667 13.0733 0.616 12.574 0.616 11.958C0.616 11.0433 0.947333 10.3293 1.61 9.816C2.27267 9.29333 3.136 9.032 4.2 9.032C5.28267 9.032 6.15533 9.29333 6.818 9.816C7.48067 10.3293 7.83533 11.048 7.882 11.972H5.292C5.27333 11.6547 5.15667 11.4073 4.942 11.23C4.72733 11.0433 4.452 10.95 4.116 10.95C3.82667 10.95 3.59333 11.0293 3.416 11.188C3.23867 11.3373 3.15 11.5567 3.15 11.846C3.15 12.1633 3.29933 12.4107 3.598 12.588C3.89667 12.7653 4.36333 12.9567 4.998 13.162C5.63267 13.3767 6.146 13.582 6.538 13.778C6.93933 13.974 7.28467 14.2587 7.574 14.632C7.86333 15.0053 8.008 15.486 8.008 16.074C8.008 16.634 7.86333 17.1427 7.574 17.6C7.294 18.0573 6.88333 18.4213 6.342 18.692C5.80067 18.9627 5.16133 19.098 4.424 19.098ZM10.6853 10.376C10.2653 10.376 9.91995 10.2547 9.64928 10.012C9.38795 9.76 9.25728 9.452 9.25728 9.088C9.25728 8.71467 9.38795 8.40667 9.64928 8.164C9.91995 7.912 10.2653 7.786 10.6853 7.786C11.0959 7.786 11.4319 7.912 11.6933 8.164C11.9639 8.40667 12.0993 8.71467 12.0993 9.088C12.0993 9.452 11.9639 9.76 11.6933 10.012C11.4319 10.2547 11.0959 10.376 10.6853 10.376ZM11.8753 11.188V19H9.48128V11.188H11.8753ZM39.7386 12.294C39.9719 11.93 40.2939 11.636 40.7046 11.412C41.1152 11.188 41.5959 11.076 42.1466 11.076C42.7906 11.076 43.3739 11.2393 43.8966 11.566C44.4192 11.8927 44.8299 12.3593 45.1286 12.966C45.4366 13.5727 45.5906 14.2773 45.5906 15.08C45.5906 15.8827 45.4366 16.592 45.1286 17.208C44.8299 17.8147 44.4192 18.286 43.8966 18.622C43.3739 18.9487 42.7906 19.112 42.1466 19.112C41.6052 19.112 41.1246 19 40.7046 18.776C40.2939 18.552 39.9719 18.2627 39.7386 17.908V22.724H37.3446V11.188H39.7386V12.294ZM43.1546 15.08C43.1546 14.4827 42.9866 14.016 42.6506 13.68C42.3239 13.3347 41.9179 13.162 41.4326 13.162C40.9566 13.162 40.5506 13.3347 40.2146 13.68C39.8879 14.0253 39.7246 14.4967 39.7246 15.094C39.7246 15.6913 39.8879 16.1627 40.2146 16.508C40.5506 16.8533 40.9566 17.026 41.4326 17.026C41.9086 17.026 42.3146 16.8533 42.6506 16.508C42.9866 16.1533 43.1546 15.6773 43.1546 15.08ZM49.2405 8.64V19H46.8465V8.64H49.2405ZM58.3394 14.968C58.3394 15.192 58.3254 15.4253 58.2974 15.668H52.8794C52.9168 16.1533 53.0708 16.5267 53.3414 16.788C53.6214 17.04 53.9621 17.166 54.3634 17.166C54.9608 17.166 55.3761 16.914 55.6094 16.41H58.1574C58.0268 16.9233 57.7888 17.3853 57.4434 17.796C57.1074 18.2067 56.6828 18.5287 56.1694 18.762C55.6561 18.9953 55.0821 19.112 54.4474 19.112C53.6821 19.112 53.0008 18.9487 52.4034 18.622C51.8061 18.2953 51.3394 17.8287 51.0034 17.222C50.6674 16.6153 50.4994 15.906 50.4994 15.094C50.4994 14.282 50.6628 13.5727 50.9894 12.966C51.3254 12.3593 51.7921 11.8927 52.3894 11.566C52.9868 11.2393 53.6728 11.076 54.4474 11.076C55.2034 11.076 55.8754 11.2347 56.4634 11.552C57.0514 11.8693 57.5088 12.322 57.8354 12.91C58.1714 13.498 58.3394 14.184 58.3394 14.968ZM55.8894 14.338C55.8894 13.9273 55.7494 13.6007 55.4694 13.358C55.1894 13.1153 54.8394 12.994 54.4194 12.994C54.0181 12.994 53.6774 13.1107 53.3974 13.344C53.1268 13.5773 52.9588 13.9087 52.8934 14.338H55.8894ZM64.9632 17.152H68.0992V19H62.5692V9.172H64.9632V17.152ZM70.445 10.376C70.025 10.376 69.6797 10.2547 69.409 10.012C69.1477 9.76 69.017 9.452 69.017 9.088C69.017 8.71467 69.1477 8.40667 69.409 8.164C69.6797 7.912 70.025 7.786 70.445 7.786C70.8557 7.786 71.1917 7.912 71.453 8.164C71.7237 8.40667 71.859 8.71467 71.859 9.088C71.859 9.452 71.7237 9.76 71.453 10.012C71.1917 10.2547 70.8557 10.376 70.445 10.376ZM71.635 11.188V19H69.241V11.188H71.635ZM76.548 19.112C75.8666 19.112 75.26 18.9953 74.728 18.762C74.196 18.5287 73.776 18.2113 73.468 17.81C73.16 17.3993 72.9873 16.942 72.95 16.438H75.316C75.344 16.7087 75.47 16.928 75.694 17.096C75.918 17.264 76.1933 17.348 76.52 17.348C76.8186 17.348 77.0473 17.292 77.206 17.18C77.374 17.0587 77.458 16.9047 77.458 16.718C77.458 16.494 77.3413 16.3307 77.108 16.228C76.8746 16.116 76.4966 15.9947 75.974 15.864C75.414 15.7333 74.9473 15.598 74.574 15.458C74.2006 15.3087 73.8786 15.08 73.608 14.772C73.3373 14.4547 73.202 14.03 73.202 13.498C73.202 13.05 73.3233 12.644 73.566 12.28C73.818 11.9067 74.182 11.6127 74.658 11.398C75.1433 11.1833 75.7173 11.076 76.38 11.076C77.36 11.076 78.13 11.3187 78.69 11.804C79.2593 12.2893 79.586 12.9333 79.67 13.736H77.458C77.4206 13.4653 77.2993 13.2507 77.094 13.092C76.898 12.9333 76.6366 12.854 76.31 12.854C76.03 12.854 75.8153 12.91 75.666 13.022C75.5166 13.1247 75.442 13.2693 75.442 13.456C75.442 13.68 75.5586 13.848 75.792 13.96C76.0346 14.072 76.408 14.184 76.912 14.296C77.4906 14.4453 77.962 14.5947 78.326 14.744C78.69 14.884 79.0073 15.1173 79.278 15.444C79.558 15.7613 79.7026 16.1907 79.712 16.732C79.712 17.1893 79.5813 17.6 79.32 17.964C79.068 18.3187 78.6993 18.5987 78.214 18.804C77.738 19.0093 77.1826 19.112 76.548 19.112ZM85.5306 16.97V19H84.3126C83.4446 19 82.7679 18.79 82.2826 18.37C81.7973 17.9407 81.5546 17.2453 81.5546 16.284V13.176H80.6026V11.188H81.5546V9.284H83.9486V11.188H85.5166V13.176H83.9486V16.312C83.9486 16.5453 84.0046 16.7133 84.1166 16.816C84.2286 16.9187 84.4153 16.97 84.6766 16.97H85.5306Z" fill="#202024"/>
<path d="M32.7328 21H16.2672C16.0666 20.999 15.8732 20.9234 15.7232 20.7873C15.5732 20.6512 15.4768 20.4639 15.452 20.2604L14.0052 6.92708C13.9923 6.81091 14.0035 6.69327 14.038 6.58181C14.0725 6.47034 14.1296 6.36755 14.2055 6.28012C14.2814 6.19268 14.3745 6.12255 14.4787 6.07429C14.5828 6.02603 14.6958 6.00072 14.8101 6H34.1899C34.3042 6.00072 34.4172 6.02603 34.5213 6.07429C34.6255 6.12255 34.7186 6.19268 34.7945 6.28012C34.8704 6.36755 34.9275 6.47034 34.962 6.58181C34.9965 6.69327 35.0077 6.81091 34.9948 6.92708L33.548 20.2604C33.5232 20.4639 33.4268 20.6512 33.2768 20.7873C33.1268 20.9234 32.9334 20.999 32.7328 21V21Z" stroke="#F2796B" stroke-linecap="round" stroke-linejoin="round"/>
<path d="M20 8V4.88889C20 3.85749 20.4741 2.86834 21.318 2.13903C22.1619 1.40972 23.3065 1 24.5 1C25.6935 1 26.8381 1.40972 27.682 2.13903C28.5259 2.86834 29 3.85749 29 4.88889V8" stroke="#F2796B" stroke-linecap="round" stroke-linejoin="round"/>
<path d="M29.998 9.172V19H27.604V13.106L25.406 19H23.474L21.262 13.092V19H18.868V9.172H21.696L24.454 15.976L27.184 9.172H29.998Z" fill="#F2796B"/>
</svg>
